<svg width="15" height="18" viewBox="0 0 15 18" fill="none" xmlns="http://www.w3.org/2000/svg">
<path id="Vector" d="M8.25 15C9.2442 14.9988 10.1973 14.6034 10.9003 13.9003C11.6033 13.1973 11.9988 12.2442 12 11.25V4.68226C12.0012 4.28803 11.9241 3.89749 11.7732 3.53328C11.6223 3.16906 11.4006 2.83842 11.121 2.56051L9.4395 0.879013C9.16159 0.599393 8.83095 0.377715 8.46674 0.226828C8.10252 0.0759412 7.71198 -0.00115346 7.31775 1.30422e-05H3.75C2.7558 0.00120394 1.80267 0.396675 1.09967 1.09968C0.396662 1.80268 0.00119089 2.75582 0 3.75001V11.25C0.00119089 12.2442 0.396662 13.1973 1.09967 13.9003C1.80267 14.6034 2.7558 14.9988 3.75 15H8.25ZM1.5 11.25V3.75001C1.5 3.15328 1.73705 2.58098 2.15901 2.15902C2.58097 1.73707 3.15326 1.50001 3.75 1.50001C3.75 1.50001 7.43925 1.51051 7.5 1.51801V3.00001C7.5 3.39784 7.65804 3.77937 7.93934 4.06067C8.22065 4.34198 8.60218 4.50001 9 4.50001H10.482C10.4895 4.56076 10.5 11.25 10.5 11.25C10.5 11.8467 10.2629 12.419 9.84099 12.841C9.41903 13.263 8.84674 13.5 8.25 13.5H3.75C3.15326 13.5 2.58097 13.263 2.15901 12.841C1.73705 12.419 1.5 11.8467 1.5 11.25ZM15 6.00001V14.25C14.9988 15.2442 14.6033 16.1973 13.9003 16.9003C13.1973 17.6034 12.2442 17.9988 11.25 18H4.5C4.30109 18 4.11032 17.921 3.96967 17.7803C3.82902 17.6397 3.75 17.4489 3.75 17.25C3.75 17.0511 3.82902 16.8603 3.96967 16.7197C4.11032 16.579 4.30109 16.5 4.5 16.5H11.25C11.8467 16.5 12.419 16.263 12.841 15.841C13.2629 15.419 13.5 14.8467 13.5 14.25V6.00001C13.5 5.8011 13.579 5.61034 13.7197 5.46968C13.8603 5.32903 14.0511 5.25001 14.25 5.25001C14.4489 5.25001 14.6397 5.32903 14.7803 5.46968C14.921 5.61034 15 5.8011 15 6.00001Z" fill="black"/>
</svg>
