<svg width="31" height="31" viewBox="0 0 31 31" fill="none" xmlns="http://www.w3.org/2000/svg">
<g id="icon/quality">
<path id="icon/quality_2" fill-rule="evenodd" clip-rule="evenodd" d="M15.5 3.5C11.0817 3.5 7.5 7.08172 7.5 11.5V12.5C5.29086 12.5 3.5 14.2909 3.5 16.5V18.5C3.5 20.7091 5.29086 22.5 7.5 22.5H9.5C10.0523 22.5 10.5 22.0523 10.5 21.5V13.5C10.5 12.9477 10.0523 12.5 9.5 12.5V11.5C9.5 8.18629 12.1863 5.5 15.5 5.5H16.5C19.8137 5.5 22.5 8.18629 22.5 11.5V12.5H21.5C20.9477 12.5 20.5 12.9477 20.5 13.5V21.5C20.5 22.0523 20.9477 22.5 21.5 22.5H21.6973C21.1444 23.4558 20.3353 24.245 19.364 24.7736C19.0733 24.0282 18.3483 23.5 17.5 23.5H14.5C13.3954 23.5 12.5 24.3954 12.5 25.5V26.5C12.5 27.6046 13.3954 28.5 14.5 28.5H17.5C18.4542 28.5 19.2523 27.8318 19.4519 26.9378C21.4874 26.1292 23.1123 24.5094 23.9276 22.4774C25.9357 22.264 27.5 20.5647 27.5 18.5V16.5C27.5 14.6362 26.2252 13.0701 24.5 12.626V11.5C24.5 7.08172 20.9183 3.5 16.5 3.5H15.5ZM7.5 14.5H8.5V20.5H7.5C6.39543 20.5 5.5 19.6046 5.5 18.5V16.5C5.5 15.3954 6.39543 14.5 7.5 14.5ZM23.5 14.5H22.5V20.5H23.5C24.6046 20.5 25.5 19.6046 25.5 18.5V16.5C25.5 15.3954 24.6046 14.5 23.5 14.5ZM17.5 25.5H14.5V26.5H17.5V25.5Z" fill="white"/>
</g>
</svg>
