<svg width="31" height="31" viewBox="0 0 31 31" fill="none" xmlns="http://www.w3.org/2000/svg">
<g id="support">
<g id="Group">
<path id="Vector" d="M9.29792 6.99715C9.60962 6.68875 9.60962 6.18085 9.29792 5.86945L8.17082 4.74145C7.86272 4.43335 7.35452 4.43335 7.04282 4.74145C6.73442 5.05315 6.73442 5.56075 7.04282 5.86945L8.17082 6.99715C8.48132 7.30885 8.98982 7.30885 9.29792 6.99715Z" fill="#0C0C0C"/>
<path id="Vector_2" d="M16.2974 4.76137C16.5152 4.76137 16.7147 4.67047 16.8605 4.52407C17.0045 4.38037 17.0942 4.18177 17.0942 3.95977V2.36557C17.0942 1.92667 16.7366 1.56787 16.2974 1.56787C15.9683 1.56787 15.6833 1.77067 15.5633 2.05687L15.5 2.36887V3.96397C15.5 4.40227 15.8576 4.76137 16.2974 4.76137Z" fill="#0C0C0C"/>
<path id="Vector_3" d="M5.1364 12.7318H3.5419C3.1042 12.7318 2.7439 13.0909 2.7439 13.5298C2.7439 13.9687 3.1042 14.3275 3.5419 14.3275H5.1361C5.5756 14.3275 5.9338 13.9687 5.9338 13.5298C5.9338 13.0909 5.5756 12.7318 5.1364 12.7318Z" fill="#0C0C0C"/>
<path id="Vector_4" d="M25.0819 5.86936C24.7732 5.56096 24.2653 5.56096 23.9533 5.86936L22.8262 6.99706C22.5172 7.30876 22.5172 7.81636 22.8262 8.12506C23.1367 8.43586 23.6449 8.43586 23.9533 8.12506L25.0819 6.99706C25.393 6.68866 25.393 6.18106 25.0819 5.86936Z" fill="#0C0C0C"/>
<path id="Vector_5" d="M27.4581 14.3242H25.8639C25.4262 14.3242 25.0659 14.6833 25.0659 15.1222C25.0659 15.5608 25.4262 15.9184 25.8639 15.9184H27.4581C27.8967 15.9184 28.2555 15.5608 28.2555 15.1222C28.2558 14.683 27.8967 14.3242 27.4581 14.3242Z" fill="#0C0C0C"/>
<path id="Vector_6" d="M15.4998 8.03271C11.511 8.03271 8.26587 11.2841 8.26587 15.281C8.26587 17.6276 9.37557 19.7834 11.2614 21.1466V23.2349C11.2614 23.7563 11.6841 24.179 12.2055 24.179C12.7269 24.179 13.1496 23.7563 13.1496 23.2349V20.6435C13.1496 20.3165 12.9807 20.0129 12.7023 19.8407C11.1066 18.8537 10.1541 17.1494 10.1541 15.2813C10.1541 12.3254 12.5526 9.92092 15.5001 9.92092C18.4479 9.92092 20.8446 12.3254 20.8446 15.2813C20.8446 17.15 19.893 18.854 18.2976 19.8407C18.0198 20.012 17.8503 20.3165 17.8503 20.6435V23.2349C17.8503 23.7563 18.273 24.179 18.7944 24.179C19.3158 24.179 19.7385 23.7563 19.7385 23.2349V21.1466C21.6228 19.7837 22.7328 17.6282 22.7328 15.281C22.7325 11.2844 19.4886 8.03271 15.4998 8.03271Z" fill="#0C0C0C"/>
<path id="Vector_7" d="M15.4998 27.5445C14.7608 27.5445 14.1058 27.1997 13.6804 26.6545C13.4282 26.3311 13.075 26.0667 12.6649 26.0667H12.6037C11.9692 26.0667 11.4922 26.6602 11.7927 27.2191C12.508 28.5496 13.8994 29.4323 15.4998 29.4323C17.0997 29.4323 18.4914 28.5495 19.2067 27.219C19.5072 26.6601 19.0302 26.0667 18.3957 26.0667H18.3342C17.9238 26.0667 17.5704 26.3316 17.318 26.6553C16.8931 27.2002 16.2387 27.5445 15.4998 27.5445Z" fill="#0C0C0C"/>
</g>
</g>
</svg>
