<svg width="165" height="35" viewBox="0 0 165 35" fill="none" xmlns="http://www.w3.org/2000/svg">
<g id="Group 75 Copy">
<path id="Fill 1" d="M56.0753 0.148804V11.9838H52.7157V2.89611H48.3264V11.9838H44.9668V0.148804H56.0753Z" fill="#DB2B21"/>
<path id="Fill 2" fill-rule="evenodd" clip-rule="evenodd" d="M60.6639 11.8992C61.3528 12.02 62.1637 12.0803 63.0966 12.0803C64.0314 12.0803 64.8447 12.02 65.5351 11.8992C66.2256 11.7788 66.8252 11.5622 67.334 11.25C67.8427 10.9381 68.2357 10.4951 68.5131 9.92086C68.7909 9.34701 68.9298 8.61945 68.9298 7.73854V4.39447C68.9298 3.51356 68.7901 2.78452 68.5112 2.20809C68.2322 1.63165 67.8391 1.18861 67.3316 0.878958C66.8245 0.569679 66.2256 0.354254 65.5351 0.233794C64.8447 0.112964 64.0314 0.0527344 63.0966 0.0527344C62.1637 0.0527344 61.3528 0.112964 60.6639 0.233794C59.9746 0.354254 59.3766 0.569679 58.869 0.878958C58.3619 1.18861 57.9681 1.63165 57.6875 2.20809C57.4074 2.78452 57.2673 3.51356 57.2673 4.39447V7.73854C57.2673 8.61945 57.407 9.34701 57.686 9.92086C57.9649 10.4951 58.3587 10.9381 58.8671 11.25C59.3758 11.5622 59.9746 11.7788 60.6639 11.8992ZM64.5425 9.20835C64.2211 9.29149 63.7391 9.33324 63.0966 9.33324C62.4593 9.33324 61.9828 9.29149 61.6669 9.20835C61.3509 9.12484 61.12 8.94674 60.9736 8.67441C60.8273 8.40208 60.7458 7.97492 60.7297 7.39184V4.72583C60.7458 4.14533 60.828 3.72039 60.9756 3.45065C61.1235 3.18091 61.3545 3.00502 61.6688 2.92262C61.9832 2.84059 62.4593 2.7992 63.0966 2.7992C63.5778 2.7992 63.9614 2.81953 64.2471 2.85906C64.5327 2.89897 64.766 2.98248 64.9466 3.10959C65.1272 3.2367 65.259 3.42663 65.3424 3.67974C65.4258 3.93286 65.4675 4.28131 65.4675 4.72583V7.39184C65.4675 7.96975 65.3936 8.3958 65.246 8.67071C65.0981 8.94563 64.8636 9.12484 64.5425 9.20835Z" fill="#DB2B21"/>
<path id="Fill 4" fill-rule="evenodd" clip-rule="evenodd" d="M70.0393 11.9838H73.3993V8.95607H76.3733C77.2566 8.95607 77.977 8.8781 78.5349 8.72291C79.0928 8.56735 79.5256 8.32014 79.8337 7.9813C80.141 7.64209 80.3577 7.19203 80.4836 6.63111C80.6092 6.06983 80.6721 5.35483 80.6721 4.48685C80.6721 3.70866 80.5938 3.04428 80.4364 2.49334C80.2791 1.9424 80.0328 1.49604 79.6979 1.15461C79.3631 0.812813 78.9229 0.560068 78.3772 0.395636C77.8314 0.231204 77.1634 0.148804 76.3733 0.148804H70.0393V11.9838ZM75.6983 6.20906H73.3994V2.89604H75.6983C76.1323 2.89604 76.4561 2.94334 76.6693 3.0383C76.8826 3.13326 77.0258 3.29178 77.0994 3.51423C77.1733 3.7363 77.2103 4.06073 77.2103 4.48678C77.2103 5.01592 77.1725 5.39651 77.0974 5.6293C77.0222 5.86172 76.8845 6.01655 76.6835 6.09341C76.4828 6.17063 76.1543 6.20906 75.6983 6.20906Z" fill="#DB2B21"/>
<path id="Fill 6" d="M87.1929 2.89599V11.9841H83.8333V2.89599H80.6047V0.148682H90.5852V2.89599H87.1929Z" fill="#DB2B21"/>
<path id="Fill 8" fill-rule="evenodd" clip-rule="evenodd" d="M94.079 9.94993H98.5992L99.2559 11.9841H102.685L98.8534 0.148682H93.7422L89.9647 11.9841H93.4593L94.079 9.94993ZM96.3637 2.51424L97.9265 7.64599H94.801L96.3307 2.51424H96.3637Z" fill="#DB2B21"/>
<path id="Fill 10" d="M104.496 0.148804H114.711V11.9838H111.335V2.89611H107.688V7.86565C107.688 8.74138 107.551 9.49408 107.277 10.1234C107.004 10.7526 106.587 11.2359 106.027 11.5737C105.466 11.9114 104.771 12.0803 103.943 12.0803C103.335 12.0803 102.764 12.0326 102.228 11.9376V9.37953C102.463 9.45417 102.805 9.49149 103.253 9.49149C103.713 9.49149 104.035 9.37435 104.22 9.14082C104.404 8.90729 104.496 8.49751 104.496 7.91183V0.148804Z" fill="#DB2B21"/>
<path id="Fill 12" d="M44.9905 16.8118H54.2022V27.5264H52.9361V17.8852H46.2562V27.5264H44.9905V16.8118Z" fill="#9D9D9C"/>
<path id="Fill 14" fill-rule="evenodd" clip-rule="evenodd" d="M56.5517 17.7142C56.2031 18.101 55.956 18.6442 55.8112 19.3433C55.666 20.0428 55.5936 20.9847 55.5936 22.169C55.5936 23.3462 55.6652 24.2837 55.8092 24.9806C55.9532 25.6775 56.1999 26.2195 56.5501 26.6068C56.8999 26.9937 57.3755 27.263 57.9775 27.4145C58.5791 27.5657 59.3797 27.6418 60.3799 27.6418C61.3871 27.6418 62.1948 27.5657 62.8027 27.4145C63.4106 27.263 63.8878 26.9948 64.234 26.6101C64.5799 26.2255 64.825 25.6823 64.969 24.9806C65.113 24.2789 65.185 23.3414 65.185 22.169C65.185 20.9895 65.1142 20.0484 64.9725 19.3452C64.8313 18.6424 64.5869 18.0981 64.2395 17.7123C63.8921 17.3262 63.4188 17.0583 62.8196 16.9079C62.2204 16.7575 61.417 16.6825 60.4094 16.6825C59.3947 16.6825 58.5854 16.7575 57.981 16.9079C57.3767 17.0583 56.9003 17.3269 56.5517 17.7142ZM57.4711 25.8005C57.2366 25.4964 57.0784 25.0682 56.9966 24.5154C56.9147 23.963 56.8738 23.1807 56.8738 22.169C56.8738 21.134 56.9124 20.3425 56.9887 19.7949C57.0658 19.2469 57.2216 18.8205 57.4561 18.5164C57.6906 18.2123 58.0305 18.0046 58.4759 17.8941C58.9213 17.7833 59.561 17.7279 60.3947 17.7279C61.221 17.7279 61.8568 17.7833 62.3021 17.8941C62.7475 18.0046 63.0867 18.2115 63.32 18.5145C63.5537 18.8179 63.7087 19.244 63.785 19.793C63.8621 20.3421 63.9007 21.134 63.9007 22.169C63.9007 23.1947 63.861 23.9811 63.7819 24.5276C63.702 25.0744 63.5466 25.4994 63.3145 25.802C63.0823 26.1054 62.7412 26.3134 62.2911 26.4265C61.8406 26.5396 61.2088 26.5961 60.3947 26.5961C59.5835 26.5961 58.9516 26.5396 58.4999 26.4265C58.0486 26.3134 57.7055 26.1046 57.4711 25.8005Z" fill="#9D9D9C"/>
<path id="Fill 16" d="M73.8886 23.9453H75.1248C75.1248 24.899 74.9946 25.6384 74.7337 26.1639C74.4729 26.6897 74.0188 27.0677 73.3708 27.2972C72.7232 27.5266 71.7987 27.6415 70.5971 27.6415C69.6859 27.6415 68.9478 27.5665 68.3816 27.4161C67.8158 27.2658 67.3606 26.9993 67.0171 26.6169C66.6733 26.2344 66.4238 25.6891 66.2684 24.9803C66.1134 24.2716 66.0359 23.3438 66.0359 22.1968C66.0359 21.0547 66.1122 20.1268 66.2649 19.4133C66.4175 18.7001 66.667 18.1451 67.0132 17.7487C67.3594 17.3525 67.8174 17.0758 68.3871 16.9184C68.9568 16.761 69.6933 16.6823 70.5971 16.6823C71.4981 16.6823 72.2291 16.751 72.7901 16.8884C73.3512 17.0263 73.7828 17.2373 74.0857 17.5214C74.3887 17.8059 74.6019 18.1584 74.7263 18.5797C74.8502 19.0002 74.9324 19.5426 74.9718 20.207L73.7395 20.1933C73.66 19.4868 73.5479 18.9725 73.4027 18.6492C73.2575 18.3266 72.9762 18.0923 72.5592 17.9463C72.1421 17.8008 71.4882 17.7276 70.5971 17.7276C69.9219 17.7276 69.3778 17.79 68.9643 17.9149C68.5512 18.0398 68.2242 18.2612 67.983 18.5797C67.7423 18.8975 67.5711 19.3446 67.4696 19.9203C67.3673 20.4963 67.3165 21.2549 67.3165 22.1968C67.3165 23.1505 67.3665 23.9073 67.4657 24.4682C67.5648 25.0291 67.7348 25.4651 67.976 25.7777C68.2164 26.0903 68.5429 26.3047 68.9548 26.4211C69.3672 26.5378 69.9141 26.5958 70.5971 26.5958C71.2872 26.5958 71.8439 26.5556 72.2668 26.4754C72.6902 26.3948 73.0199 26.2581 73.2556 26.0645C73.4912 25.8709 73.6557 25.607 73.7489 25.2722C73.8418 24.9378 73.8886 24.4955 73.8886 23.9453Z" fill="#9D9D9C"/>
<path id="Fill 18" d="M79.0478 27.5263V17.8854H75.3097V16.7976H84.0331L84.0182 17.8854H80.3285V27.5263H79.0478Z" fill="#9D9D9C"/>
<path id="Fill 20" fill-rule="evenodd" clip-rule="evenodd" d="M88.4737 16.7977L84.3071 27.5261H85.681L86.5974 25.3197H92.3609L93.2174 27.5261H94.5725L90.317 16.7977H88.4737ZM89.419 17.686L91.9512 24.274H86.9022L89.419 17.686Z" fill="#9D9D9C"/>
<path id="Fill 22" fill-rule="evenodd" clip-rule="evenodd" d="M95.5947 27.5263H101.418C102.471 27.5263 103.22 27.2669 103.665 26.7481C104.111 26.2293 104.334 25.4619 104.334 24.4454C104.334 23.9373 104.289 23.5242 104.2 23.2056C104.11 22.8875 103.938 22.6218 103.684 22.4086C103.429 22.195 103.057 22.0243 102.565 21.8961C102.977 21.7586 103.288 21.578 103.496 21.354C103.705 21.1305 103.841 20.8711 103.903 20.5762C103.967 20.2813 103.999 19.9052 103.999 19.4485C103.999 18.4974 103.765 17.8175 103.299 17.4095C102.832 17.0016 102.099 16.7976 101.099 16.7976H95.5947V27.5263ZM96.8609 17.8574V21.4801H100.492C101.065 21.4801 101.511 21.425 101.83 21.3157C102.149 21.2063 102.377 21.0127 102.513 20.7352C102.65 20.4577 102.718 20.0627 102.718 19.5498C102.718 18.8946 102.594 18.449 102.347 18.2122C102.1 17.9757 101.635 17.8574 100.95 17.8574H96.8609ZM96.8609 22.5258V26.4525H100.383C100.929 26.4525 101.361 26.4315 101.679 26.3897C101.997 26.3476 102.258 26.2615 102.463 26.1311C102.668 26.0003 102.817 25.807 102.912 25.5506C103.006 25.2941 103.053 24.9453 103.053 24.5048C103.053 23.9221 102.992 23.492 102.869 23.2145C102.746 22.937 102.539 22.753 102.249 22.6621C101.958 22.5712 101.514 22.5258 100.916 22.5258H96.8609Z" fill="#9D9D9C"/>
<path id="Fill 24" d="M112.874 16.7976H114.14V26.4525H119.948V16.7976H121.214V26.4525H122.022V29.9917H120.894V27.5263H105.781V16.7976H107.047V26.4525H112.874V16.7976Z" fill="#9D9D9C"/>
<path id="Fill 26" d="M123.276 16.7976H124.541V26.7116L131.035 16.7976H133.064V27.5263H131.798V17.714L125.286 27.5263H123.276V16.7976Z" fill="#9D9D9C"/>
<path id="Fill 28" d="M136.191 16.7976V21.48H137.333L141.984 16.7976H143.693L138.447 21.9818L144.304 27.5263H142.55L137.319 22.5394H136.191V27.5263H134.924V16.7976H136.191Z" fill="#9D9D9C"/>
<path id="Fill 30" fill-rule="evenodd" clip-rule="evenodd" d="M145.707 17.7142C145.359 18.101 145.112 18.6442 144.966 19.3433C144.822 20.0428 144.749 20.9847 144.749 22.169C144.749 23.3462 144.821 24.2837 144.965 24.9806C145.109 25.6775 145.356 26.2195 145.705 26.6068C146.055 26.9937 146.531 27.263 147.133 27.4145C147.735 27.5657 148.536 27.6418 149.536 27.6418C150.543 27.6418 151.35 27.5657 151.959 27.4145C152.567 27.263 153.043 26.9948 153.39 26.6101C153.736 26.2255 153.981 25.6823 154.125 24.9806C154.269 24.2789 154.341 23.3414 154.341 22.169C154.341 20.9895 154.27 20.0484 154.128 19.3452C153.987 18.6424 153.743 18.0981 153.395 17.7123C153.048 17.3262 152.574 17.0583 151.975 16.9079C151.376 16.7575 150.573 16.6825 149.565 16.6825C148.551 16.6825 147.741 16.7575 147.137 16.9079C146.532 17.0583 146.056 17.3269 145.707 17.7142ZM146.627 25.8005C146.392 25.4964 146.234 25.0682 146.152 24.5154C146.07 23.963 146.029 23.1807 146.029 22.169C146.029 21.134 146.068 20.3425 146.144 19.7949C146.222 19.2469 146.377 18.8205 146.612 18.5164C146.846 18.2123 147.186 18.0046 147.632 17.8941C148.077 17.7833 148.717 17.7279 149.55 17.7279C150.377 17.7279 151.012 17.7833 151.457 17.8941C151.903 18.0046 152.242 18.2115 152.476 18.5145C152.709 18.8179 152.864 19.244 152.941 19.793C153.018 20.3421 153.056 21.134 153.056 22.169C153.056 23.1947 153.017 23.9811 152.937 24.5276C152.858 25.0744 152.702 25.4994 152.471 25.802C152.238 26.1054 151.897 26.3134 151.446 26.4265C150.997 26.5396 150.364 26.5961 149.55 26.5961C148.739 26.5961 148.108 26.5396 147.656 26.4265C147.204 26.3134 146.861 26.1046 146.627 25.8005Z" fill="#9D9D9C"/>
<path id="Fill 32" fill-rule="evenodd" clip-rule="evenodd" d="M155.635 27.5263H161.458C162.511 27.5263 163.26 27.2669 163.705 26.7481C164.151 26.2293 164.374 25.4619 164.374 24.4454C164.374 23.9373 164.329 23.5242 164.239 23.2056C164.15 22.8875 163.978 22.6218 163.724 22.4086C163.469 22.195 163.096 22.0243 162.605 21.8961C163.017 21.7586 163.327 21.578 163.536 21.354C163.744 21.1305 163.88 20.8711 163.943 20.5762C164.007 20.2813 164.039 19.9052 164.039 19.4485C164.039 18.4974 163.805 17.8175 163.338 17.4095C162.872 17.0016 162.138 16.7976 161.138 16.7976H155.635V27.5263ZM156.9 17.8574V21.4801H160.531C161.104 21.4801 161.551 21.425 161.87 21.3157C162.188 21.2063 162.417 21.0127 162.553 20.7352C162.689 20.4577 162.758 20.0627 162.758 19.5498C162.758 18.8946 162.634 18.449 162.387 18.2122C162.14 17.9757 161.674 17.8574 160.989 17.8574H156.9ZM156.9 22.5258V26.4525H160.423C160.969 26.4525 161.401 26.4315 161.719 26.3897C162.036 26.3476 162.298 26.2615 162.502 26.1311C162.707 26.0003 162.857 25.807 162.951 25.5506C163.046 25.2941 163.092 24.9453 163.092 24.5048C163.092 23.9221 163.031 23.492 162.909 23.2145C162.786 22.937 162.579 22.753 162.288 22.6621C161.998 22.5712 161.554 22.5258 160.956 22.5258H156.9Z" fill="#9D9D9C"/>
<path id="Fill 34" fill-rule="evenodd" clip-rule="evenodd" d="M6.1935 28.2561H23.9295V11.5993H6.1935V28.2561ZM0 5.78284L0.000393443 34.0729H30.1228V5.78247L0 5.78284Z" fill="#9D9D9C"/>
<path id="Fill 36" fill-rule="evenodd" clip-rule="evenodd" d="M12.3505 22.4735H30.0862V5.81671H12.3505V22.4735ZM6.15735 28.29H36.2794V0H6.15735V28.29Z" fill="#C92723"/>
<path id="Fill 37" d="M30.1228 34.0728L23.9296 28.2899V5.81671L30.1228 5.78235V34.0728Z" fill="#9D9D9C"/>
</g>
</svg>
